<?xml version="1.0" encoding="utf-8"?>
<!-- Generator: Fusion 360, Shaper Origin Export Add-In, Version 1.6.3  -->
<svg xmlns="http://www.w3.org/2000/svg" xmlns:xlink="http://www.w3.org/1999/xlink" xmlns:shaper="http://www.shapertools.com/namespaces/shaper" shaper:fusionaddin="version:1.6.3" width="16.82cm" height="10.42cm" version="1.1" x="0cm" y="0cm" viewBox="0 0 16.82 10.42" enable-background="new 0 0 16.82 10.42" xml:space="preserve"><path d="M-1.2557317,0.4805586 A0.15,0.15 60.5040902 0,0 -1.3295859,0.2 L-2.5595487,0.2 A0.15,0.15 270 0,0 -2.633403,0.2194414 L-4.4011914,1.2194414 A0.15,0.15 240.5040902 0,0 -4.3273372,1.5 L-3.0973743,1.5 A0.15,0.15 90 0,0 -3.0235201,1.4805586 L-1.2557317,0.4805586z" transform="matrix(1,0,0,-1,8.41,5.21)" stroke="rgb(100,100,100)" stroke-width="0.0010cm" stroke-linecap="round" stroke-linejoin="round" fill="none" shaper:cutDepth="0" /><path d="M5.5766009,2.381261 A0.5,0.5 303.1252528 0,0 5.3033654,2.3 L-5.3033654,2.3 A0.5,0.5 270 0,0 -5.5766009,2.381261 L-6.7302713,3.134054 A0.5,0.5 236.8747472 0,0 -6.9146932,3.3514237 L-7.6247208,4.9651228 A0.41,0.41 23.7494945 0,1 -8.3752792,4.6348772 L-7.3236809,2.2448811 A0.5,0.5 23.7494945 0,0 -7.2920385,2.1463982 L-6.9107001,0.3328568 A0.5,0.5 11.8747472 0,0 -6.9,0.2299704 L-6.9,-0.2299704 A0.5,0.5 0 0,0 -6.9107001,-0.3328568 L-7.2920385,-2.1463982 A0.5,0.5 348.1252528 0,0 -7.3236809,-2.2448811 L-8.3752792,-4.6348772 A0.41,0.41 156.2505055 0,1 -7.6247208,-4.9651228 L-6.9146932,-3.3514237 A0.5,0.5 156.2505055 0,0 -6.7302713,-3.134054 L-5.5766009,-2.381261 A0.5,0.5 123.1252528 0,0 -5.3033654,-2.3 L5.3033654,-2.3 A0.5,0.5 90 0,0 5.5766009,-2.381261 L6.7302713,-3.134054 A0.5,0.5 56.8747472 0,0 6.9146932,-3.3514237 L7.6247208,-4.9651228 A0.41,0.41 203.7494945 0,1 8.3752792,-4.6348772 L7.3236809,-2.2448811 A0.5,0.5 203.7494945 0,0 7.2920385,-2.1463982 L6.9107001,-0.3328568 A0.5,0.5 191.8747472 0,0 6.9,-0.2299704 L6.9,0.2299704 A0.5,0.5 180 0,0 6.9107001,0.3328568 L7.2920385,2.1463982 A0.5,0.5 168.1252528 0,0 7.3236809,2.2448811 L8.3752792,4.6348772 A0.41,0.41 336.2505055 0,1 7.6247208,4.9651228 L6.9146932,3.3514237 A0.5,0.5 336.2505055 0,0 6.7302713,3.134054 L5.5766009,2.381261z" transform="matrix(1,0,0,-1,8.41,5.21)" stroke="rgb(100,100,100)" stroke-width="0.0010cm" stroke-linecap="round" stroke-linejoin="round" fill="none" shaper:cutDepth="0" /><path d="M-5.9549765,0.2 A0.15,0.15 270 0,0 -6.1044617,0.3375831 A1.3,1.3 4.7483246 0,1 -6.1278203,0.4974751 L-6.3552356,1.5790004 A0.15,0.15 191.8747472 0,0 -6.1345914,1.7404249 L-3.9074143,0.4805586 A0.15,0.15 60.5040902 0,0 -3.9812686,0.2 L-5.9549765,0.2z" transform="matrix(1,0,0,-1,8.41,5.21)" stroke="rgb(100,100,100)" stroke-width="0.0010cm" stroke-linecap="round" stroke-linejoin="round" fill="none" shaper:cutDepth="0" /><path d="M-8.21,-4.8 a0.21,0.21 0 1,1 0.42,0 a0.21,0.21 0 1,1 -0.42,0z" transform="matrix(1,0,0,-1,8.41,5.21)" stroke="rgb(100,100,100)" stroke-width="0.0010cm" stroke-linecap="round" stroke-linejoin="round" fill="none" shaper:cutDepth="0" /><path d="M7.79,-4.8 a0.21,0.21 0 1,1 0.42,0 a0.21,0.21 0 1,1 -0.42,0z" transform="matrix(1,0,0,-1,8.41,5.21)" stroke="rgb(100,100,100)" stroke-width="0.0010cm" stroke-linecap="round" stroke-linejoin="round" fill="none" shaper:cutDepth="0" /><path d="M-2.633403,-0.2194414 A0.15,0.15 119.4959098 0,0 -2.5595487,-0.2 L-1.3295859,-0.2 A0.15,0.15 90 0,0 -1.2557317,-0.4805586 L-3.0235201,-1.4805586 A0.15,0.15 299.4959098 0,0 -3.0973743,-1.5 L-4.3273372,-1.5 A0.15,0.15 270 0,0 -4.4011914,-1.2194414 L-2.633403,-0.2194414z" transform="matrix(1,0,0,-1,8.41,5.21)" stroke="rgb(100,100,100)" stroke-width="0.0010cm" stroke-linecap="round" stroke-linejoin="round" fill="none" shaper:cutDepth="0" /><path d="M-6.1044617,-0.3375831 A0.15,0.15 175.2516754 0,0 -5.9549765,-0.2 L-3.9812686,-0.2 A0.15,0.15 90 0,0 -3.9074143,-0.4805586 L-6.1345914,-1.7404249 A0.15,0.15 299.4959098 0,0 -6.3552356,-1.5790004 L-6.1278203,-0.4974751 A1.3,1.3 348.1252528 0,1 -6.1044617,-0.3375831z" transform="matrix(1,0,0,-1,8.41,5.21)" stroke="rgb(100,100,100)" stroke-width="0.0010cm" stroke-linecap="round" stroke-linejoin="round" fill="none" shaper:cutDepth="0" /><path d="M-0.0738542,-0.2715596 A0.15,0.15 119.4959098 0,0 0.0738542,-0.2715596 L1.7495087,-1.2194414 A0.15,0.15 60.5040902 0,0 1.6756545,-1.5 L-1.6756545,-1.5 A0.15,0.15 270 0,0 -1.7495087,-1.2194414 L-0.0738542,-0.2715596z" transform="matrix(1,0,0,-1,8.41,5.21)" stroke="rgb(100,100,100)" stroke-width="0.0010cm" stroke-linecap="round" stroke-linejoin="round" fill="none" shaper:cutDepth="0" /><path d="M1.3295859,0.2 A0.15,0.15 270 0,0 1.2557317,0.4805586 L3.0235201,1.4805586 A0.15,0.15 119.4959098 0,0 3.0973743,1.5 L4.3273372,1.5 A0.15,0.15 90 0,0 4.4011914,1.2194414 L2.633403,0.2194414 A0.15,0.15 299.4959098 0,0 2.5595487,0.2 L1.3295859,0.2z" transform="matrix(1,0,0,-1,8.41,5.21)" stroke="rgb(100,100,100)" stroke-width="0.0010cm" stroke-linecap="round" stroke-linejoin="round" fill="none" shaper:cutDepth="0" /><path d="M3.9074143,-0.4805586 A0.15,0.15 240.5040902 0,0 3.9812686,-0.2 L5.9549765,-0.2 A0.15,0.15 90 0,0 6.1044617,-0.3375831 A1.3,1.3 184.7483246 0,1 6.1278203,-0.4974751 L6.3552356,-1.5790004 A0.15,0.15 11.8747472 0,0 6.1345914,-1.7404249 L3.9074143,-0.4805586z" transform="matrix(1,0,0,-1,8.41,5.21)" stroke="rgb(100,100,100)" stroke-width="0.0010cm" stroke-linecap="round" stroke-linejoin="round" fill="none" shaper:cutDepth="0" /><path d="M1.2557317,-0.4805586 A0.15,0.15 240.5040902 0,0 1.3295859,-0.2 L2.5595487,-0.2 A0.15,0.15 90 0,0 2.633403,-0.2194414 L4.4011914,-1.2194414 A0.15,0.15 60.5040902 0,0 4.3273372,-1.5 L3.0973743,-1.5 A0.15,0.15 270 0,0 3.0235201,-1.4805586 L1.2557317,-0.4805586z" transform="matrix(1,0,0,-1,8.41,5.21)" stroke="rgb(100,100,100)" stroke-width="0.0010cm" stroke-linecap="round" stroke-linejoin="round" fill="none" shaper:cutDepth="0" /><path d="M7.79,4.8 a0.21,0.21 0 1,1 0.42,0 a0.21,0.21 0 1,1 -0.42,0z" transform="matrix(1,0,0,-1,8.41,5.21)" stroke="rgb(100,100,100)" stroke-width="0.0010cm" stroke-linecap="round" stroke-linejoin="round" fill="none" shaper:cutDepth="0" /><path d="M6.1044617,0.3375831 A0.15,0.15 355.2516754 0,0 5.9549765,0.2 L3.9812686,0.2 A0.15,0.15 270 0,0 3.9074143,0.4805586 L6.1345914,1.7404249 A0.15,0.15 119.4959098 0,0 6.3552356,1.5790004 L6.1278203,0.4974751 A1.3,1.3 168.1252528 0,1 6.1044617,0.3375831z" transform="matrix(1,0,0,-1,8.41,5.21)" stroke="rgb(100,100,100)" stroke-width="0.0010cm" stroke-linecap="round" stroke-linejoin="round" fill="none" shaper:cutDepth="0" /><path d="M-8.21,4.8 a0.21,0.21 0 1,1 0.42,0 a0.21,0.21 0 1,1 -0.42,0z" transform="matrix(1,0,0,-1,8.41,5.21)" stroke="rgb(100,100,100)" stroke-width="0.0010cm" stroke-linecap="round" stroke-linejoin="round" fill="none" shaper:cutDepth="0" /><path d="M-1.7495087,1.2194414 A0.15,0.15 240.5040902 0,0 -1.6756545,1.5 L1.6756545,1.5 A0.15,0.15 90 0,0 1.7495087,1.2194414 L0.0738542,0.2715596 A0.15,0.15 299.4959098 0,0 -0.0738542,0.2715596 L-1.7495087,1.2194414z" transform="matrix(1,0,0,-1,8.41,5.21)" stroke="rgb(100,100,100)" stroke-width="0.0010cm" stroke-linecap="round" stroke-linejoin="round" fill="none" shaper:cutDepth="0" /></svg>